<svg width="112" height="36" viewBox="0 0 112 36" fill="none" xmlns="http://www.w3.org/2000/svg">
<path d="M48.065 20.7908C48.065 16.5248 45.554 13.3118 41.666 13.3118C39.938 13.3118 38.48 14.0408 37.427 15.4448V8.61377H33.674V27.9998H37.13V25.9208C38.237 27.4328 39.803 28.2698 41.666 28.2698C45.554 28.2698 48.065 25.0028 48.065 20.7908ZM44.204 20.7908C44.204 23.4908 42.665 24.9218 40.829 24.9218C38.966 24.9218 37.454 23.4638 37.454 20.7368C37.454 18.0098 39.02 16.6328 40.829 16.6328C42.665 16.6328 44.204 18.0368 44.204 20.7908ZM52.8999 27.9998V8.61377H49.1199V27.9998H52.8999ZM63.5014 27.9998H66.5524V18.9278C66.5524 15.3908 64.3384 13.3118 60.5584 13.3118C57.0754 13.3118 54.6724 15.4718 54.4564 18.7928H57.8314C57.9664 17.1728 58.9384 16.2278 60.5584 16.2278C62.1244 16.2278 63.0424 17.1728 63.0424 18.7928V19.6568C62.1514 19.5488 61.4494 19.4948 60.6394 19.4948C56.4274 19.4948 54.1594 21.0068 54.1594 23.8148C54.1594 26.5148 56.1574 28.2698 59.1544 28.2698C61.1254 28.2698 62.5564 27.5678 63.5014 26.2178V27.9998ZM57.6964 23.7068C57.6964 22.4108 58.7494 21.7358 60.8824 21.7358C61.5304 21.7358 62.1514 21.7898 63.0424 21.9248V22.9508C63.0424 24.6248 61.8814 25.6778 59.9644 25.6778C58.5604 25.6778 57.6964 24.9218 57.6964 23.7068ZM72.1895 20.1428C72.1895 17.8208 73.4585 16.6328 74.9435 16.6328C76.6445 16.6328 77.4815 17.8208 77.4815 19.9538V27.9998H81.2075V18.6848C81.2075 15.2018 79.2095 13.3118 76.3205 13.3118C74.4305 13.3118 72.9455 14.2028 71.8925 15.6338V13.5818H68.4365V27.9998H72.1895V20.1428ZM86.8444 27.9998V21.3038L92.3524 27.9998H97.1314L90.4624 20.4938L96.4294 13.5818H92.1094L86.8444 19.6838V8.61377H83.0914V27.9998H86.8444ZM102.984 28.2698C107.169 28.2698 110.301 24.9758 110.301 20.7908C110.301 16.5788 107.169 13.3118 102.984 13.3118C98.7995 13.3118 95.6675 16.5788 95.6675 20.7908C95.6675 24.9758 98.7995 28.2698 102.984 28.2698ZM102.984 24.9488C101.121 24.9488 99.5285 23.4638 99.5285 20.7908C99.5285 18.1178 101.121 16.6598 102.984 16.6598C104.847 16.6598 106.44 18.1178 106.44 20.7908C106.44 23.4638 104.847 24.9488 102.984 24.9488Z" fill="white"/>
<path d="M22 6H17V23H22V6Z" fill="#FF7043"/>
<path d="M17 28V23H0V28H17Z" fill="#FF7043"/>
<path d="M22 11V6L5 6V11H22Z" fill="#FF7043"/>
<path d="M0 28H5L5 11H0L0 28Z" fill="#FF7043"/>
</svg>
